<svg xmlns="http://www.w3.org/2000/svg" viewBox="0 0 50 50"><path d="M 11.8125 2 C 11.335938 2.089844 10.992188 2.511719 11 3 L 11 24 L 3 24 C 2.589844 23.992188 2.210938 24.234375 2.054688 24.613281 C 1.894531 24.992188 1.984375 25.433594 2.28125 25.71875 L 24.28125 47.71875 C 24.46875 47.914063 24.730469 48.023438 25 48.023438 C 25.269531 48.023438 25.53125 47.914063 25.71875 47.71875 L 47.71875 25.71875 C 48.015625 25.433594 48.105469 24.992188 47.945313 24.613281 C 47.789063 24.234375 47.410156 23.992188 47 24 L 39 24 L 39 3 C 39 2.449219 38.550781 2 38 2 L 12 2 C 11.96875 2 11.9375 2 11.90625 2 C 11.875 2 11.84375 2 11.8125 2 Z M 13 4 L 37 4 L 37 25 C 37 25.550781 37.449219 26 38 26 L 44.5625 26 L 25 45.5625 L 5.4375 26 L 12 26 C 12.550781 26 13 25.550781 13 25 Z M 24 11 L 24 13.21875 C 22.351563 13.414063 19.46875 14.773438 19.46875 18.21875 C 19.46875 24.628906 28.8125 21.304688 28.8125 26.15625 C 28.8125 27.789063 28.09375 29.21875 25 29.21875 C 21.875 29.21875 21.027344 26.84375 21.03125 25.5 L 18.96875 25.5 C 19.304688 29.824219 22.285156 30.808594 24 31.0625 L 24 33 L 26 33 L 26 31.09375 C 27.484375 30.949219 30.96875 29.875 30.96875 25.9375 C 30.96875 22.628906 28.277344 21.703125 25.6875 21.09375 C 23.554688 20.59375 21.65625 20.042969 21.65625 18 C 21.65625 17.089844 22.015625 15.09375 25 15.09375 C 27.0625 15.09375 28.085938 16.382813 28.40625 17.96875 L 30.4375 17.96875 C 29.835938 15.75 28.890625 13.765625 26 13.28125 L 26 11 Z"/></svg>
