<svg xmlns="http://www.w3.org/2000/svg" viewBox="0 0 50 50"><linearGradient id="a" x1="25.001" x2="25.001" y1="2.972" y2="47.028" gradientUnits="userSpaceOnUse"><stop offset="0" stop-color="#37c1fd"/><stop offset="1" stop-color="#0a75d6"/></linearGradient><path fill="url(#a)" d="M37.068 3.001a2.998 2.998 0 0 0-2.045.588l-17.47 13.31-7.465-5.665a2.003 2.003 0 0 0-2.518.105L4.537 14.1a2.001 2.001 0 0 0-.061 2.95L11.38 25 4.476 32.95a2.001 2.001 0 0 0 .06 2.95l3.034 2.762a2.003 2.003 0 0 0 2.518.105l7.465-5.665 17.47 13.31a3 3 0 0 0 3.31.302l5.578-2.785A3 3 0 0 0 46 40.976V9.025a3 3 0 0 0-1.09-2.952l-5.578-2.785A2.998 2.998 0 0 0 37.068 3zM36 10.835v28.33L17.867 25zm-26.153 3.4 6.387 4.852a2 2 0 0 1 0 3.184l-6.386 4.852-1.854-1.688L14.759 25l-6.764-6.434z"/></svg>
