<svg xmlns="http://www.w3.org/2000/svg" viewBox="0 0 760 1040" font-family="ui-monospace,SFMono-Regular,Menlo,monospace" font-size="12">
<defs>
  <marker id="arr-64748b" markerWidth="7" markerHeight="5" refX="7" refY="2.5" orient="auto">
    <polygon points="0 0, 7 2.5, 0 5" fill="#64748b"/>
  </marker>
  <marker id="arr-10b981" markerWidth="7" markerHeight="5" refX="7" refY="2.5" orient="auto">
    <polygon points="0 0, 7 2.5, 0 5" fill="#10b981"/>
  </marker>
  <marker id="arr-f59e0b" markerWidth="7" markerHeight="5" refX="7" refY="2.5" orient="auto">
    <polygon points="0 0, 7 2.5, 0 5" fill="#f59e0b"/>
  </marker>
  <marker id="arr-8b5cf6" markerWidth="7" markerHeight="5" refX="7" refY="2.5" orient="auto">
    <polygon points="0 0, 7 2.5, 0 5" fill="#8b5cf6"/>
  </marker>
  <marker id="arr-ef4444" markerWidth="7" markerHeight="5" refX="7" refY="2.5" orient="auto">
    <polygon points="0 0, 7 2.5, 0 5" fill="#ef4444"/>
  </marker>
  <marker id="arr-3b82f6" markerWidth="7" markerHeight="5" refX="7" refY="2.5" orient="auto">
    <polygon points="0 0, 7 2.5, 0 5" fill="#3b82f6"/>
  </marker>
</defs>

<!-- ═══════════════════════════════════════════════════════════════ -->
<!-- Title                                                          -->
<!-- ═══════════════════════════════════════════════════════════════ -->
<rect width="760" height="1040" fill="#f8fafc" rx="8"/>
<text x="350" y="28" text-anchor="middle" font-size="15" font-weight="bold" fill="#1e293b">PDF Layout Engine — Multi-Pass Pipeline</text>
<text x="350" y="46" text-anchor="middle" font-size="10" fill="#64748b">How headers, footers, and mixed page sizes are composited per physical page</text>

<!-- ═══════════════════════════════════════════════════════════════ -->
<!-- Section 1: React Template (code block)                         -->
<!-- ═══════════════════════════════════════════════════════════════ -->
<text x="350" y="70" text-anchor="middle" font-size="11" font-weight="bold" fill="#1e293b">React Template — Single Document, Mixed Page Sizes</text>

<!-- Code block background (narrower) -->
<rect x="160" y="80" width="380" height="195" rx="6" fill="#1e293b"/>

<!-- Line numbers -->
<text x="175" y="100" font-size="9" fill="#475569">1</text>
<text x="175" y="114" font-size="9" fill="#475569">2</text>
<text x="175" y="128" font-size="9" fill="#475569">3</text>
<text x="175" y="142" font-size="9" fill="#475569">4</text>
<text x="175" y="156" font-size="9" fill="#475569">5</text>
<text x="175" y="170" font-size="9" fill="#475569">6</text>
<text x="175" y="184" font-size="9" fill="#475569">7</text>
<text x="175" y="198" font-size="9" fill="#475569">8</text>
<text x="175" y="212" font-size="9" fill="#475569">9</text>
<text x="175" y="226" font-size="9" fill="#475569">10</text>
<text x="175" y="240" font-size="9" fill="#475569">11</text>
<text x="175" y="254" font-size="9" fill="#475569">12</text>
<text x="175" y="268" font-size="9" fill="#475569">13</text>

<!-- Cover page group - amber left bar -->
<rect x="160" y="104" width="3" height="42" fill="#f59e0b"/>
<!-- Normal page group - indigo left bar -->
<rect x="160" y="152" width="3" height="42" fill="#6366f1"/>
<!-- Landscape page group - teal left bar -->
<rect x="160" y="200" width="3" height="42" fill="#14b8a6"/>

<!-- JSX code with syntax coloring -->
<text x="190" y="100" font-size="10" fill="#93c5fd">&lt;Document&gt;</text>

<!-- Cover page -->
<text x="205" y="114" font-size="10"><tspan fill="#93c5fd">&lt;Page </tspan><tspan fill="#86efac">size</tspan><tspan fill="#e2e8f0">=</tspan><tspan fill="#fcd34d">"a4"</tspan><tspan fill="#86efac"> type</tspan><tspan fill="#e2e8f0">=</tspan><tspan fill="#fcd34d">"cover"</tspan><tspan fill="#93c5fd">&gt;</tspan></text>
<text x="220" y="128" font-size="10"><tspan fill="#93c5fd">&lt;Header </tspan><tspan fill="#86efac">height</tspan><tspan fill="#e2e8f0">=</tspan><tspan fill="#fcd34d">&#123;20&#125;</tspan><tspan fill="#93c5fd"> /&gt;</tspan></text>
<text x="220" y="142" font-size="10"><tspan fill="#93c5fd">&lt;Footer </tspan><tspan fill="#86efac">height</tspan><tspan fill="#e2e8f0">=</tspan><tspan fill="#fcd34d">&#123;10&#125;</tspan><tspan fill="#93c5fd"> /&gt;</tspan></text>
<text x="205" y="156" font-size="10" fill="#93c5fd">&lt;/Page&gt;</text>

<!-- Normal page -->
<text x="205" y="170" font-size="10"><tspan fill="#93c5fd">&lt;Page </tspan><tspan fill="#86efac">size</tspan><tspan fill="#e2e8f0">=</tspan><tspan fill="#fcd34d">"a4"</tspan><tspan fill="#93c5fd">&gt;</tspan></text>
<text x="220" y="184" font-size="10"><tspan fill="#93c5fd">&lt;Header </tspan><tspan fill="#86efac">height</tspan><tspan fill="#e2e8f0">=</tspan><tspan fill="#fcd34d">&#123;18&#125;</tspan><tspan fill="#93c5fd"> /&gt;</tspan></text>
<text x="220" y="198" font-size="10"><tspan fill="#93c5fd">&lt;Footer </tspan><tspan fill="#86efac">height</tspan><tspan fill="#e2e8f0">=</tspan><tspan fill="#fcd34d">&#123;8&#125;</tspan><tspan fill="#93c5fd"> /&gt;</tspan></text>
<text x="205" y="212" font-size="10" fill="#93c5fd">&lt;/Page&gt;</text>

<!-- Landscape page -->
<text x="205" y="226" font-size="10"><tspan fill="#93c5fd">&lt;Page </tspan><tspan fill="#86efac">size</tspan><tspan fill="#e2e8f0">=</tspan><tspan fill="#fcd34d">"a4-landscape"</tspan><tspan fill="#93c5fd">&gt;</tspan></text>
<text x="220" y="240" font-size="10"><tspan fill="#93c5fd">&lt;Header </tspan><tspan fill="#86efac">height</tspan><tspan fill="#e2e8f0">=</tspan><tspan fill="#fcd34d">&#123;18&#125;</tspan><tspan fill="#93c5fd"> /&gt;</tspan></text>
<text x="220" y="254" font-size="10"><tspan fill="#93c5fd">&lt;Footer </tspan><tspan fill="#86efac">height</tspan><tspan fill="#e2e8f0">=</tspan><tspan fill="#fcd34d">&#123;8&#125;</tspan><tspan fill="#93c5fd"> /&gt;</tspan></text>
<text x="205" y="268" font-size="10" fill="#93c5fd">&lt;/Page&gt;</text>

<!-- Arrow to Phase 1 -->
<line x1="350" y1="280" x2="350" y2="298" stroke="#64748b" stroke-width="1.5" marker-end="url(#arr-64748b)"/>

<!-- ═══════════════════════════════════════════════════════════════ -->
<!-- Phase 1 — DOM Scan                                             -->
<!-- ═══════════════════════════════════════════════════════════════ -->
<rect x="40" y="302" width="500" height="115" rx="6" fill="#fef9c3" stroke="#f59e0b" stroke-width="1.5"/>
<text x="290" y="318" text-anchor="middle" font-size="11" font-weight="bold" fill="#1e293b">Phase 1 — DOM Scan</text>
<text x="555" y="335" font-size="8.5" fill="#64748b">Puppeteer renders to DOM</text>
<text x="555" y="348" font-size="8.5" fill="#64748b">measures header/footer</text>
<text x="555" y="361" font-size="8.5" fill="#64748b">heights per type×size</text>

<!-- Cover A4 page (portrait, amber accent) -->
<rect x="80" y="340" width="70" height="55" rx="2" fill="white" stroke="#f59e0b" stroke-width="1.5"/>
<rect x="80" y="340" width="70" height="9" rx="2" fill="#bfdbfe"/>
<rect x="80" y="387" width="70" height="8" rx="2" fill="#e9d5ff"/>
<rect x="80" y="340" width="70" height="9" rx="2" fill="none" stroke="#f59e0b" stroke-width="1" stroke-dasharray="3,2"/>
<rect x="80" y="387" width="70" height="8" rx="2" fill="none" stroke="#f59e0b" stroke-width="1" stroke-dasharray="3,2"/>
<line x1="84" y1="357" x2="130" y2="357" stroke="#cbd5e1" stroke-width="0.8"/>
<line x1="84" y1="365" x2="142" y2="365" stroke="#cbd5e1" stroke-width="0.8"/>
<line x1="84" y1="373" x2="125" y2="373" stroke="#cbd5e1" stroke-width="0.8"/>
<text x="115" y="335" text-anchor="middle" font-size="7.5" fill="#f59e0b" font-weight="bold">cover : a4</text>

<!-- Normal A4 page (portrait, indigo accent) -->
<rect x="220" y="340" width="70" height="55" rx="2" fill="white" stroke="#6366f1" stroke-width="1.5"/>
<rect x="220" y="340" width="70" height="9" rx="2" fill="#bfdbfe"/>
<rect x="220" y="387" width="70" height="8" rx="2" fill="#e9d5ff"/>
<rect x="220" y="340" width="70" height="9" rx="2" fill="none" stroke="#6366f1" stroke-width="1" stroke-dasharray="3,2"/>
<rect x="220" y="387" width="70" height="8" rx="2" fill="none" stroke="#6366f1" stroke-width="1" stroke-dasharray="3,2"/>
<line x1="224" y1="357" x2="270" y2="357" stroke="#cbd5e1" stroke-width="0.8"/>
<line x1="224" y1="365" x2="282" y2="365" stroke="#cbd5e1" stroke-width="0.8"/>
<line x1="224" y1="373" x2="265" y2="373" stroke="#cbd5e1" stroke-width="0.8"/>
<text x="255" y="335" text-anchor="middle" font-size="7.5" fill="#6366f1" font-weight="bold">default : a4</text>

<!-- Landscape page (wide, teal accent) — larger header/footer -->
<rect x="370" y="345" width="100" height="50" rx="2" fill="white" stroke="#14b8a6" stroke-width="1.5"/>
<rect x="370" y="345" width="100" height="12" rx="2" fill="#bfdbfe"/>
<rect x="370" y="383" width="100" height="12" rx="2" fill="#e9d5ff"/>
<rect x="370" y="345" width="100" height="12" rx="2" fill="none" stroke="#14b8a6" stroke-width="1" stroke-dasharray="3,2"/>
<rect x="370" y="383" width="100" height="12" rx="2" fill="none" stroke="#14b8a6" stroke-width="1" stroke-dasharray="3,2"/>
<line x1="374" y1="365" x2="445" y2="365" stroke="#cbd5e1" stroke-width="0.8"/>
<line x1="374" y1="373" x2="455" y2="373" stroke="#cbd5e1" stroke-width="0.8"/>
<text x="420" y="335" text-anchor="middle" font-size="7.5" fill="#14b8a6" font-weight="bold">default : a4-landscape</text>

<!-- Arrow to Phase 2 -->
<line x1="290" y1="419" x2="290" y2="437" stroke="#64748b" stroke-width="1.5" marker-end="url(#arr-64748b)"/>

<!-- ═══════════════════════════════════════════════════════════════ -->
<!-- Phase 2 — Extract Headers & Footers                            -->
<!-- ═══════════════════════════════════════════════════════════════ -->
<rect x="40" y="441" width="500" height="115" rx="6" fill="#ede9fe" stroke="#8b5cf6" stroke-width="1.5"/>
<text x="290" y="457" text-anchor="middle" font-size="11" font-weight="bold" fill="#1e293b">Phase 2 — Extract Headers &amp; Footers</text>
<text x="555" y="475" font-size="8.5" fill="#64748b">Isolated Puppeteer render</text>
<text x="555" y="488" font-size="8.5" fill="#64748b">per type×size group</text>
<text x="555" y="501" font-size="8.5" fill="#64748b">loaded into pdf-lib</text>

<!-- Cover:a4 group (amber) -->
<text x="100" y="478" text-anchor="middle" font-size="9" font-weight="bold" fill="#f59e0b">cover : a4</text>
<rect x="55" y="484" width="90" height="18" rx="2" fill="#bfdbfe" stroke="#f59e0b" stroke-width="1"/>
<text x="100" y="497" text-anchor="middle" font-size="8" fill="#1e3a5f">header.pdf</text>
<text x="100" y="510" text-anchor="middle" font-size="8" fill="#64748b">+</text>
<rect x="55" y="514" width="90" height="18" rx="2" fill="#e9d5ff" stroke="#f59e0b" stroke-width="1"/>
<text x="100" y="527" text-anchor="middle" font-size="8" fill="#4a1d96">footer.pdf</text>

<!-- Default:a4 group (indigo) -->
<text x="245" y="478" text-anchor="middle" font-size="9" font-weight="bold" fill="#6366f1">default : a4</text>
<rect x="200" y="484" width="90" height="18" rx="2" fill="#bfdbfe" stroke="#6366f1" stroke-width="1"/>
<text x="245" y="497" text-anchor="middle" font-size="8" fill="#1e3a5f">header.pdf</text>
<text x="245" y="510" text-anchor="middle" font-size="8" fill="#64748b">+</text>
<rect x="200" y="514" width="90" height="18" rx="2" fill="#e9d5ff" stroke="#6366f1" stroke-width="1"/>
<text x="245" y="527" text-anchor="middle" font-size="8" fill="#4a1d96">footer.pdf</text>

<!-- Default:a4-landscape group (teal) — wider header/footer -->
<text x="420" y="478" text-anchor="middle" font-size="9" font-weight="bold" fill="#14b8a6">default : a4-landscape</text>
<rect x="355" y="484" width="130" height="18" rx="2" fill="#bfdbfe" stroke="#14b8a6" stroke-width="1"/>
<text x="420" y="497" text-anchor="middle" font-size="8" fill="#1e3a5f">header.pdf</text>
<text x="420" y="510" text-anchor="middle" font-size="8" fill="#64748b">+</text>
<rect x="355" y="514" width="130" height="18" rx="2" fill="#e9d5ff" stroke="#14b8a6" stroke-width="1"/>
<text x="420" y="527" text-anchor="middle" font-size="8" fill="#4a1d96">footer.pdf</text>

<!-- Arrow to Phase 3 -->
<line x1="290" y1="558" x2="290" y2="576" stroke="#64748b" stroke-width="1.5" marker-end="url(#arr-64748b)"/>

<!-- ═══════════════════════════════════════════════════════════════ -->
<!-- Phase 3 — Content Render                                       -->
<!-- ═══════════════════════════════════════════════════════════════ -->
<rect x="40" y="580" width="500" height="155" rx="6" fill="#dcfce7" stroke="#10b981" stroke-width="1.5"/>
<text x="290" y="596" text-anchor="middle" font-size="11" font-weight="bold" fill="#1e293b">Phase 3 — Content Render</text>
<text x="555" y="620" font-size="8.5" fill="#64748b">Strip decorators</text>
<text x="555" y="633" font-size="8.5" fill="#64748b">@page margins = measured</text>
<text x="555" y="646" font-size="8.5" fill="#64748b">heights · Puppeteer print</text>
<text x="555" y="659" font-size="8.5" fill="#64748b">per group</text>

<!-- Cover:a4 content page (amber) -->
<text x="100" y="617" text-anchor="middle" font-size="9" font-weight="bold" fill="#f59e0b">cover : a4</text>
<rect x="60" y="623" width="80" height="95" rx="2" fill="white" stroke="#f59e0b" stroke-width="1.5"/>
<line x1="62" y1="639" x2="138" y2="639" stroke="#f59e0b" stroke-width="0.8" stroke-dasharray="3,2"/>
<line x1="62" y1="705" x2="138" y2="705" stroke="#f59e0b" stroke-width="0.8" stroke-dasharray="3,2"/>
<line x1="66" y1="653" x2="110" y2="653" stroke="#cbd5e1" stroke-width="0.8"/>
<line x1="66" y1="663" x2="130" y2="663" stroke="#cbd5e1" stroke-width="0.8"/>
<line x1="66" y1="673" x2="122" y2="673" stroke="#cbd5e1" stroke-width="0.8"/>
<line x1="66" y1="683" x2="115" y2="683" stroke="#cbd5e1" stroke-width="0.8"/>
<line x1="66" y1="693" x2="125" y2="693" stroke="#cbd5e1" stroke-width="0.8"/>
<text x="100" y="635" text-anchor="middle" font-size="6" fill="#f59e0b">↕ 20mm header margin</text>
<text x="100" y="715" text-anchor="middle" font-size="6" fill="#f59e0b">↕ 10mm footer margin</text>

<!-- Default:a4 content page (indigo) -->
<text x="235" y="617" text-anchor="middle" font-size="9" font-weight="bold" fill="#6366f1">default : a4</text>
<rect x="195" y="623" width="80" height="95" rx="2" fill="white" stroke="#6366f1" stroke-width="1.5"/>
<line x1="197" y1="637" x2="273" y2="637" stroke="#6366f1" stroke-width="0.8" stroke-dasharray="3,2"/>
<line x1="197" y1="707" x2="273" y2="707" stroke="#6366f1" stroke-width="0.8" stroke-dasharray="3,2"/>
<line x1="201" y1="651" x2="245" y2="651" stroke="#cbd5e1" stroke-width="0.8"/>
<line x1="201" y1="661" x2="265" y2="661" stroke="#cbd5e1" stroke-width="0.8"/>
<line x1="201" y1="671" x2="257" y2="671" stroke="#cbd5e1" stroke-width="0.8"/>
<line x1="201" y1="681" x2="250" y2="681" stroke="#cbd5e1" stroke-width="0.8"/>
<line x1="201" y1="691" x2="260" y2="691" stroke="#cbd5e1" stroke-width="0.8"/>
<text x="235" y="633" text-anchor="middle" font-size="6" fill="#6366f1">↕ 18mm header margin</text>
<text x="235" y="715" text-anchor="middle" font-size="6" fill="#6366f1">↕ 8mm footer margin</text>

<!-- Default:a4-landscape content page (teal, wide) -->
<text x="420" y="617" text-anchor="middle" font-size="9" font-weight="bold" fill="#14b8a6">default : a4-landscape</text>
<rect x="355" y="623" width="130" height="75" rx="2" fill="white" stroke="#14b8a6" stroke-width="1.5"/>
<line x1="357" y1="639" x2="483" y2="639" stroke="#14b8a6" stroke-width="0.8" stroke-dasharray="3,2"/>
<line x1="357" y1="687" x2="483" y2="687" stroke="#14b8a6" stroke-width="0.8" stroke-dasharray="3,2"/>
<line x1="361" y1="651" x2="440" y2="651" stroke="#cbd5e1" stroke-width="0.8"/>
<line x1="361" y1="659" x2="470" y2="659" stroke="#cbd5e1" stroke-width="0.8"/>
<line x1="361" y1="667" x2="455" y2="667" stroke="#cbd5e1" stroke-width="0.8"/>
<line x1="361" y1="675" x2="445" y2="675" stroke="#cbd5e1" stroke-width="0.8"/>
<text x="420" y="635" text-anchor="middle" font-size="6" fill="#14b8a6">↕ 18mm header margin</text>
<text x="420" y="695" text-anchor="middle" font-size="6" fill="#14b8a6">↕ 8mm footer margin</text>

<!-- Arrow to Phase 4 -->
<line x1="290" y1="737" x2="290" y2="755" stroke="#64748b" stroke-width="1.5" marker-end="url(#arr-64748b)"/>

<!-- ═══════════════════════════════════════════════════════════════ -->
<!-- Phase 4 — Composite (single merged document, pages stacked)    -->
<!-- ═══════════════════════════════════════════════════════════════ -->
<rect x="40" y="759" width="500" height="245" rx="6" fill="#fee2e2" stroke="#ef4444" stroke-width="1.5"/>
<text x="290" y="775" text-anchor="middle" font-size="11" font-weight="bold" fill="#1e293b">Phase 4 — Composite</text>
<text x="555" y="800" font-size="8.5" fill="#64748b">pdf-lib · drawPage()</text>
<text x="555" y="813" font-size="8.5" fill="#64748b">pins header at top,</text>
<text x="555" y="826" font-size="8.5" fill="#64748b">footer at bottom of</text>
<text x="555" y="839" font-size="8.5" fill="#64748b">every physical page</text>

<!-- Single merged document container -->
<rect x="230" y="790" width="120" height="202" rx="4" fill="#fef2f2" stroke="#ef4444" stroke-width="1" stroke-dasharray="4,2"/>
<text x="290" y="802" text-anchor="middle" font-size="7" fill="#ef4444" font-weight="bold">final.pdf</text>

<!-- Page 1: Cover (amber) — stacked vertically -->
<rect x="245" y="808" width="90" height="50" rx="2" fill="white" stroke="#f59e0b" stroke-width="1.2"/>
<rect x="245" y="808" width="90" height="8" rx="2" fill="#bfdbfe" stroke="#f59e0b" stroke-width="0.6"/>
<rect x="245" y="850" width="90" height="8" rx="2" fill="#e9d5ff" stroke="#f59e0b" stroke-width="0.6"/>
<line x1="249" y1="823" x2="310" y2="823" stroke="#cbd5e1" stroke-width="0.6"/>
<line x1="249" y1="830" x2="300" y2="830" stroke="#cbd5e1" stroke-width="0.6"/>
<line x1="249" y1="837" x2="305" y2="837" stroke="#cbd5e1" stroke-width="0.6"/>
<text x="360" y="833" font-size="7" fill="#f59e0b">← cover:a4</text>

<!-- Page 2: Normal (indigo) -->
<rect x="245" y="863" width="90" height="50" rx="2" fill="white" stroke="#6366f1" stroke-width="1.2"/>
<rect x="245" y="863" width="90" height="7" rx="2" fill="#bfdbfe" stroke="#6366f1" stroke-width="0.6"/>
<rect x="245" y="906" width="90" height="7" rx="2" fill="#e9d5ff" stroke="#6366f1" stroke-width="0.6"/>
<line x1="249" y1="877" x2="310" y2="877" stroke="#cbd5e1" stroke-width="0.6"/>
<line x1="249" y1="884" x2="300" y2="884" stroke="#cbd5e1" stroke-width="0.6"/>
<line x1="249" y1="891" x2="305" y2="891" stroke="#cbd5e1" stroke-width="0.6"/>
<text x="360" y="888" font-size="7" fill="#6366f1">← default:a4</text>

<!-- Page 3: Landscape (teal, wider within the stack) -->
<rect x="235" y="918" width="110" height="40" rx="2" fill="white" stroke="#14b8a6" stroke-width="1.2"/>
<rect x="235" y="918" width="110" height="7" rx="2" fill="#bfdbfe" stroke="#14b8a6" stroke-width="0.6"/>
<rect x="235" y="951" width="110" height="7" rx="2" fill="#e9d5ff" stroke="#14b8a6" stroke-width="0.6"/>
<line x1="239" y1="932" x2="320" y2="932" stroke="#cbd5e1" stroke-width="0.6"/>
<line x1="239" y1="939" x2="310" y2="939" stroke="#cbd5e1" stroke-width="0.6"/>
<text x="360" y="940" font-size="7" fill="#14b8a6">← default:a4-landscape</text>

<!-- Page number labels on left -->
<text x="220" y="835" text-anchor="end" font-size="7" fill="#94a3b8">p.1</text>
<text x="220" y="890" text-anchor="end" font-size="7" fill="#94a3b8">p.2</text>
<text x="220" y="940" text-anchor="end" font-size="7" fill="#94a3b8">p.3</text>


<!-- ═══════════════════════════════════════════════════════════════ -->
<!-- Legend                                                          -->
<!-- ═══════════════════════════════════════════════════════════════ -->
<text x="60" y="1072" font-size="9" font-weight="bold" fill="#1e293b">Legend:</text>
<rect x="100" y="1063" width="12" height="12" rx="2" fill="#bfdbfe"/>
<text x="118" y="1073" font-size="8" fill="#64748b">Header</text>
<rect x="160" y="1063" width="12" height="12" rx="2" fill="#e9d5ff"/>
<text x="178" y="1073" font-size="8" fill="#64748b">Footer</text>
<rect x="220" y="1063" width="12" height="12" rx="2" fill="white" stroke="#f59e0b" stroke-width="1.5"/>
<text x="238" y="1073" font-size="8" fill="#f59e0b">cover:a4</text>
<rect x="300" y="1063" width="12" height="12" rx="2" fill="white" stroke="#6366f1" stroke-width="1.5"/>
<text x="318" y="1073" font-size="8" fill="#6366f1">default:a4</text>
<rect x="390" y="1063" width="12" height="12" rx="2" fill="white" stroke="#14b8a6" stroke-width="1.5"/>
<text x="408" y="1073" font-size="8" fill="#14b8a6">default:a4-landscape</text>

</svg>